<svg id="Layer_1" data-name="Layer 1" xmlns="http://www.w3.org/2000/svg" viewBox="0 0 500 250">
  <defs>
    <style>
      .cls-1 {
        fill: #f3f1df;
      }
    </style>
  </defs>
  <g>
    <path class="cls-1" d="M79.3,97.9c-.21-2-1.37-4.53-3.85-4.27-5.29.54-6.36,12.36-7.19,16.55a25.26,25.26,0,0,1-13.09,5.54,6.66,6.66,0,0,1-2.64-.19c6-3.79,13.39-10.46,12.59-18.35-.62-6.08-4.72-10.56-11-9.92C41.82,88.51,32.79,101.61,34,113.55a16.94,16.94,0,0,0,1.6,5.64,7,7,0,0,1-1.57.27c-6.87.7-13.71-3.95-14.44-11-.48-4.73,4-8.14,8.23-8.57a9.47,9.47,0,0,1,5.11,1c-2.27-5.57-8.25-9.52-14.22-8.91-7.55.77-13.79,7.66-13,15.43,1.32,13,16.51,16.87,27.55,15.75a28.16,28.16,0,0,0,4.37-.68,15.65,15.65,0,0,0,12.35,4c7-.71,13-5.3,17.37-10.53-2.57,9.48-10.6,26.69-21.75,27.82-3.49.36-7.62-1-8-5.1A6.82,6.82,0,0,1,41.47,132a15.16,15.16,0,0,0-8.8-1.49c-9.35.95-15.64,10.69-14.74,19.59,1.09,10.7,10.34,17.72,20.93,16.64,22.86-2.32,31.24-37.43,34.36-55.95C76.29,107.42,79.79,102.74,79.3,97.9Zm-30,15.23c-2.36-1.93-3.13-5-3.43-8-.4-3.94,0-12.63,5.37-13.18,3.38-.34,4.44,4.44,4.7,7C56.52,104.43,53.66,109.84,49.33,113.13Z"/>
    <path class="cls-1" d="M151,114.73a6.43,6.43,0,0,0,5.78-7,6.54,6.54,0,0,0-7.08-5.77,6.43,6.43,0,0,0-5.65,7.06A6.33,6.33,0,0,0,151,114.73Z"/>
    <path class="cls-1" d="M219.36,141.57l9.55-29.19-9.58,1L218,116.67c-.52-2.79-2.67-3.82-5.37-3.54-7.8.79-14.75,8.86-18.21,17.36-1.6,3-4.32,6.66-7.08,6.94-1.58.16-2.38-1-2.51-2.36-.43-4.17,3.93-9.39,3.34-15.25-.34-3.26-2.63-4.51-5.78-4.19-4.73.48-9.81,5.33-12.15,9.21l2.39-6.73-9.91,1L158,133.23c-1.7,3.46-4.89,7.69-7.6,8a2.3,2.3,0,0,1-2.49-2.13c-.4-3.95,4-14.75,5.35-19l-9.91,1-4.54,14c-1.57,3.37-5.1,7.67-8.35,8-1.91.19-2.82-.85-3-2.66a10.7,10.7,0,0,1,.67-4.62l3.26-10.46,5.06-.51,1.16-3.19-5.18.53,4.09-12.37-1.92.2a22.91,22.91,0,0,1-15.8,13.55l-1,3.18,3.83-.39-3.68,11.2c-1.64,3.31-5,7.33-8.17,7.65-1.92.19-2.82-.86-3-2.66a10.68,10.68,0,0,1,.67-4.62l3.26-10.46,5.06-.51,1.16-3.19-5.18.53,4.09-12.37-1.92.2a22.91,22.91,0,0,1-15.8,13.55l-1,3.18,3.83-.39-3.61,11c-2.46,4.92-6.47,9.38-13.7,10.12a5.08,5.08,0,0,1-5.82-4.65c6.58-1.35,17.49-8.15,16.71-15.81-.32-3.15-2.62-4.51-5.55-4.21-11.94,1.21-22.8,17.45-21.63,28.94.57,5.63,3.81,9.51,9.78,8.91,7.5-.77,13.52-8,17.76-15a22.48,22.48,0,0,0-.42,6.48c.38,3.72,2.14,6.49,6.19,6.08,5.64-.57,11-7.69,14.86-14.22a22.58,22.58,0,0,0-.33,6c.38,3.72,2.14,6.5,6.2,6.08,5.46-.55,10.7-7.28,14.51-13.64a17.44,17.44,0,0,0-.61,6.08c.41,4.06,3.32,5.81,6.25,5.51,4.18-.42,9.45-7.24,13.41-13.62L151,154.1l9.8-1,6-17.8c1.31-3.88,5.32-12.6,9.93-13.07,1.36-.14,1.92,1,2,2.07.58,5.75-7.29,14.51-6.49,22.4.32,3.15,2.56,6.11,5.94,5.76,5-.5,10.19-7.62,14-14.17a19.7,19.7,0,0,0-.1,4.45c.44,4.28,3.09,8,7.71,7.52,6.08-.62,10.66-9.27,12.65-14.37l.12.1-2.32,9.68c-6.75,5.24-20.51,16.43-19.55,25.89.25,2.48,1.82,4.48,4.64,4.19a12.52,12.52,0,0,0,5.47-2.15c9.48-6.31,13.89-17.8,17.39-28.17,7.5-5.65,12.49-11.4,16.52-19.89l-1.67-.74C230.44,130.77,224.33,137.88,219.36,141.57ZM77.49,142.8c-.51-3.93,2.68-13.92,7.19-14.38,1.57-.16,1.94,1.17,2.06,2.41C87.25,135.78,81.91,141.45,77.49,142.8Zm125,25.29c-1.13.11-1.6-1.2-1.7-2.1-.6-6,4.91-12.22,9-16.05C209.13,152.85,205.42,167.79,202.49,168.09Zm4.9-32.36c-1.92.2-3-2-3.21-3.54-.49-4.84,3.86-15.76,9.38-16.32,1.92-.19,2.79,1.65,2.95,3.23C217,123.94,213,135.16,207.39,135.73Z"/>
    <path class="cls-1" d="M321,70.92c-.56-5.52-4.61-7.27-9.68-6.75-12.84,1.3-24.79,13.56-25.06,26.56-6-.07-13.16-3-13.85-9.74-.41-4.06,3.66-6.52,7.27-6.89A10.69,10.69,0,0,1,285,75c-3-5.16-9.09-8.75-15.17-8.13-6.31.64-11.07,5.22-10.41,11.75,1.27,12.51,16.38,15.63,26.66,16,.12,9,4.36,17.2,5.26,26,.95,9.35-5,17.23-14.42,18.2-8.11.82-16.2-3.7-17.08-12.38-.4-3.94,1.33-8.21,5.83-8.67a5.64,5.64,0,0,1,5.84,4.76,5.39,5.39,0,0,1-4.2,5.77,12.37,12.37,0,0,0,7.74,2.17c6.86-.7,11.77-6.2,11.06-13.19-.78-7.65-7.4-12.33-14.84-11.57-10.25,1-18.15,9.47-17.08,19.95,1.19,11.71,12,18,23,16.88,16.9-1.71,31.74-15.74,29.93-33.54-.61-6-3.53-11.24-5.91-16.69C310.19,89.31,322.07,82,321,70.92ZM300.14,89a17.37,17.37,0,0,1-1-4.11c-.5-4.85.48-15.41,6.78-16.06,3.27-.33,4.55,3.3,4.82,6C311.44,81.45,306.33,87.2,300.14,89Z"/>
    <path class="cls-1" d="M488.43,98.82c-1.19,2.86-4.72,8.45-8.1,8.79a2.35,2.35,0,0,1-2.49-2.13,6.64,6.64,0,0,1,.16-2.86l12.77-38.86-9.79,1-8.62,26c-.63-2.78-2.78-3.82-5.48-3.54C459.71,88,452,96,448.38,105.08c-2.52,4.33-6.41,8-12.94,8.69a5.08,5.08,0,0,1-5.82-4.64c6.58-1.35,17.49-8.15,16.71-15.81-.32-3.15-2.62-4.51-5.54-4.21C432.11,90,424,98.81,420.67,108c-1.8,3-4.73,6.08-7.47,6.36-1.91.2-2.82-.85-3-2.65a10.66,10.66,0,0,1,.67-4.62l3.26-10.46,5.07-.52,1.15-3.19-5.18.53,4.09-12.36-1.91.19a23,23,0,0,1-15.81,13.56l-1,3.18,3.83-.39-3.61,11c-1.57,3.13-4.58,7.57-7.55,7.87-2.48.26-3.68-1.44-3.92-3.81-.48-4.73,4.28-12.72,7.47-16.12l-.37-1.33c-3.73,1.29-7.57,2.71-11.63,3.12a7.36,7.36,0,0,1-4.15-.49,4.93,4.93,0,0,0,.62-2.91,2.08,2.08,0,0,0-2.38-2.14c-3.15.32-6.22,4.84-5.85,8.45a5.21,5.21,0,0,0,1.88,4,58.36,58.36,0,0,1-2.54,6.08c-1.74,3.48-4.67,7.74-7.51,8a2.36,2.36,0,0,1-2.49-2.13c-.4-3.95,3.83-14.85,5.35-19l-9.57,1-1.26,3.31c-.5-2.68-2.89-3.8-5.48-3.53-7.89.8-14.91,9-18.33,17.6-1.77,3.07-4.82,6.37-7.65,6.66-1.91.19-2.81-.85-3-2.65A10.66,10.66,0,0,1,323,116l3.26-10.46,5.07-.52,1.15-3.19-5.18.53L331.42,90l-1.91.2a23,23,0,0,1-15.81,13.56l-1,3.17,3.83-.39-4.86,14.84a27.57,27.57,0,0,0-1.62,11c.38,3.72,2.14,6.5,6.2,6.09,5.59-.57,10.94-7.59,14.77-14.08a19.82,19.82,0,0,0-.07,4.27c.44,4.28,3.09,8,7.71,7.52,6.19-.63,11-9.19,13-14.4l.24.09c-1.2,3.87-2.3,13.2,4.35,12.53,5.91-.61,14.35-15.37,17.46-21.61a2.12,2.12,0,0,0,.11-.21c.85-1.79,2-4.07,3.09-6.57a7,7,0,0,0,2.18.12c4.5-.46,8.45-4.16,12.19-6.48l.13.1c-6,5.62-15.63,17.52-14.73,26.31.4,3.94,2.88,6,6.82,5.56,5.06-.51,10.75-7.9,14.82-14.61a22.84,22.84,0,0,0-.41,6.43c.38,3.72,2.14,6.5,6.2,6.09,5.73-.59,11.23-8,15.07-14.59a18.36,18.36,0,0,0,0,3.15c.57,5.63,3.81,9.51,9.78,8.9,7.4-.75,13.35-7.8,17.58-14.66a21.3,21.3,0,0,0-.06,4.58c.44,4.27,3.09,8,7.71,7.52,6.08-.62,11-9.2,13-14.41l.24.09a22.36,22.36,0,0,0-.8,7.82c.3,2.93,1.88,5,5.15,4.71,7.09-.72,15.83-17.77,18.36-23Zm-142.3,22.79c-1.92.2-3.05-2-3.21-3.54-.49-4.84,3.86-15.76,9.49-16.33,1.81-.18,2.79,1.65,2.95,3.23C355.85,109.81,351.76,121,346.13,121.61ZM429.41,107c-.52-3.93,2.68-13.93,7.18-14.38,1.58-.16,1.94,1.16,2.06,2.4C439.16,100,433.82,105.63,429.41,107Zm32.26,2.86c-1.92.2-3.05-2-3.21-3.54C458,101.47,462.32,90.56,468,90c1.81-.18,2.79,1.65,2.95,3.23C471.39,98.05,467.3,109.28,461.67,109.85Z"/>
  </g>
</svg>
