<svg id="Layer_1" data-name="Layer 1" xmlns="http://www.w3.org/2000/svg" viewBox="0 0 100 40">
  <defs>
    <style>
      .cls-1 {
        fill: #f3f1df;
      }
    </style>
  </defs>
  <g>
    <path class="cls-1" d="M15.81,21.91c-1.24,1.94-2.48,2.56-3.79,2.56-1.08,0-1.84-.59-1.84-1.36s.77-1.42,2-1.42a3.11,3.11,0,0,1,1,.16.62.62,0,0,0-.38.57c0,.3.22.51.6.51.78,0,1.57-1,2-3.12a4,4,0,0,1-3,1.52c-1,0-1.62-.53-1.62-1.35,0-1.32,1.86-1.64,1.86-3.06a1,1,0,0,0-1-1c-.57,0-.83.29-.83.58a.47.47,0,0,0,.5.45A.71.71,0,0,0,12,16.7a1.75,1.75,0,0,1-1.9,1.81c-.77,0-1.67-.43-1.67-1.29,0-1.09,1.22-2,3.09-2s2.6.69,2.6,1.87c0,.81-.36,1.14-.36,1.81,0,.43.22.67.59.67a1.43,1.43,0,0,0,1.3-1.17c.2-1.62.69-3.28,2.91-3.28a3.29,3.29,0,0,1,2.13.69C18.19,16.19,17.33,19.48,15.81,21.91Z"/>
    <path class="cls-1" d="M22,21.29a.67.67,0,0,0,.78-.17,3.25,3.25,0,0,0,.3-.37l.43.09-.26.36a1.16,1.16,0,0,1-1.38.49,3.09,3.09,0,0,1-2.57,1.5,1.71,1.71,0,0,1-1.88-1.66,2.76,2.76,0,0,1,2.93-2.47,1.58,1.58,0,0,1,1.77,1.63A1.78,1.78,0,0,1,22,21.29Zm-1.31-1.72A1.32,1.32,0,0,0,19.51,21a.83.83,0,0,0,.81.94,1.18,1.18,0,0,0,.9-.48,1.09,1.09,0,0,1-.42-.93,1.19,1.19,0,0,1,.31-.84A.85.85,0,0,0,20.73,19.57Z"/>
    <path class="cls-1" d="M26.05,22A2.78,2.78,0,0,1,24,23.26a1.12,1.12,0,0,1-1.28-1.19,2.24,2.24,0,0,1,.2-.81l.83-2H25.6L24.86,21a1.12,1.12,0,0,0-.1.4c0,.3.26.41.52.41.91,0,1.55-1.86,1.85-2.56H29L28.22,21a1,1,0,0,0-.09.37.45.45,0,0,0,.47.46c.47,0,.83-.22,1.54-1.11l.43.09c-1,1.47-2.11,2.42-3.2,2.42a1.16,1.16,0,0,1-1.32-1.17Z"/>
    <path class="cls-1" d="M46.3,18.16a.76.76,0,0,0,.36-.61.4.4,0,0,0-.45-.37,3.15,3.15,0,0,0-2,1.32A14.3,14.3,0,0,1,44.29,20c0,1.95-.8,3.36-2.17,3.36-.81,0-1.18-.68-1.18-1.41a4.43,4.43,0,0,1,1.26-2.67,7.72,7.72,0,0,1-.4-1.52c-1.51,1.94-3.35,5.54-6.17,5.54a2.05,2.05,0,0,1-2.29-2,2.09,2.09,0,0,1,2.24-2,2,2,0,0,1,.82.16.72.72,0,0,0-.51.69c0,.41.28.7.8.7,2.47,0,5.23-5.89,7.33-5.89a.38.38,0,0,1,.25.09,2.56,2.56,0,0,0-.35,1.36A7.6,7.6,0,0,0,44,17.56c1.25-1.66,2.48-2.38,3.66-2.38.75,0,1.13.44,1.13.95C48.82,17.2,47.65,18.06,46.3,18.16Zm-8.47-.52c-1.06,0-1.81-.48-1.81-1.19s.73-1.36,1.86-1.36a2,2,0,0,1,1.1.33c-.29,0-.72.13-.72.49s.41.44.67.44a4.62,4.62,0,0,0,2.67-1A4.23,4.23,0,0,1,37.83,17.64Zm4.59,2.63a2.65,2.65,0,0,0-.64,1.53c0,.19,0,.55.31.57.44,0,.5-.67.5-1A3.93,3.93,0,0,0,42.42,20.27Z"/>
    <path class="cls-1" d="M48.71,22.06a2.42,2.42,0,0,1-1.92,1.23,1.5,1.5,0,0,1-1.63-1.61A2.89,2.89,0,0,1,48.05,19a1.61,1.61,0,0,1,1.4.66l.17-.4H51.4a7.48,7.48,0,0,0-.83,2.09.43.43,0,0,0,.43.48c.6,0,1.12-.63,1.52-1.11l.43.09c-.9,1.35-2,2.42-3.1,2.42a1.06,1.06,0,0,1-1.1-1.19Zm-1.44-.89a.64.64,0,0,0,.63.71,1.63,1.63,0,0,0,1.29-1.53c0-.41-.22-.72-.62-.72a1.32,1.32,0,0,0-1,.68A1.59,1.59,0,0,0,47.27,21.17Z"/>
    <path class="cls-1" d="M60.53,21.45a.38.38,0,0,0,.41.41c.65,0,1.16-.65,1.53-1.11l.44.09c-.63.95-1.95,2.42-3.18,2.42-.69,0-1.15-.33-1.15-1s.94-1.55.94-2c0-.22-.2-.34-.42-.34-.5,0-1.12.37-1.54,1.34l-.82,1.9H54.89A18.23,18.23,0,0,0,56,20.24a.33.33,0,0,0-.37-.36c-.44,0-1.08.41-1.59,1.59l-.71,1.64H51.51l1.63-3.82H55l-.27.59a2.89,2.89,0,0,1,2-.78,1.21,1.21,0,0,1,1.17.84,3.11,3.11,0,0,1,2-.84c.58,0,1.27.2,1.27.9S60.53,21,60.53,21.45Z"/>
    <path class="cls-1" d="M65.61,19.09c.53,0,1.33.18,1.33.85,0,1-2,1.43-2.74,1.46.2.4.45.6,1.12.6a3.41,3.41,0,0,0,2.43-1.25l.43.09a5.42,5.42,0,0,1-4,2.43,1.73,1.73,0,0,1-1.94-1.65C62.24,20.26,63.83,19.09,65.61,19.09Zm-1.5,1.76a.86.86,0,0,0,0,.16c.75-.14,1.41-.53,1.41-1.12a.28.28,0,0,0-.3-.32A1.31,1.31,0,0,0,64.11,20.85Z"/>
    <path class="cls-1" d="M72.89,17.58a1.64,1.64,0,0,1,1-1.43c1-.48,2.51-.37,4.11-.53,1.31-.13,2.84-.65,3.32-.69-3.49,2.92-3.93,8.45-7.94,8.45a2.21,2.21,0,0,1-2.47-2,1.9,1.9,0,0,1,2-1.93,2.5,2.5,0,0,1,.66.09.77.77,0,0,0-.3.61.69.69,0,0,0,.77.68c.62,0,1.26-.39,2.25-1.47.71-.76,2.64-3.06,3.18-3.46-1.83.75-3.88.59-3.88,1.39a.36.36,0,0,0,.4.35,1,1,0,0,0,.7-.3,2.07,2.07,0,0,1-2,1.68A1.59,1.59,0,0,1,72.89,17.58Z"/>
    <path class="cls-1" d="M78.9,21.26l.67-1.54H79l.19-.42a3.67,3.67,0,0,0,2.46-1.56h.63l-.67,1.55h.7l-.21.43H81.4l-.5,1.13a1.18,1.18,0,0,0-.15.53c0,.25.16.48.58.48.65,0,1.16-.65,1.54-1.11l.43.09c-.69,1-2,2.42-3.36,2.42a1.11,1.11,0,0,1-1.25-1.2A2.07,2.07,0,0,1,78.9,21.26Z"/>
    <path class="cls-1" d="M84,21.77a.83.83,0,1,1-.91.83A.87.87,0,0,1,84,21.77Zm.72-.49-.47-.11c0-.14.15-.43.18-.57.36-1.33.05-2.76.55-4.06.22-.57.69-1.3,1.38-1.3a1.08,1.08,0,0,1,1.06,1.19C87.45,18.27,85.4,19.65,84.75,21.28Z"/>
  </g>
</svg>
